<?xml version="1.0" encoding="UTF-8"?>
<svg
id="opencanvas-logo"
data-name="opencanvas-logo"
xmlns="http://www.w3.org/2000/svg"
viewBox="-750 0 2294.13 774"
fill="currentColor"
style={{ width: "auto", height: "auto" }}
>
<path d="M320.22,238.74s-29.01,7.95-51.54,26.91c-55.86,47.01-61.47,165.78-13.44,227.34,56.31,72.15,155.67,20.37,209.22,69.54,39.12,35.91,39.24,142.44,0.51,178.26-37.86,35.01-141,34.35-176.01-5.46-43.92-49.92-2.43-136.02-55.53-196.17-59.28-67.17-174.81-7.8-217.53-80.16-23.7-40.14-22.53-131.22,14.55-163.62,48.12-42.03,135.42-4.5,193.53-52.74,70.08-58.17,14.49-169.59,74.67-214.92,42.36-31.92,115.44-39.87,161.19-0.51,52.41,45.09,49.77,134.94,11.76,175.11-18.36,19.41-44.49,26.7-53.22,29.13-39.03,10.86-58.8-3.48-98.16,7.32Z" />
</svg>